# xmcd
# 
# Track frame offsets:
#     183
#     29008
#     39450
#     65680
#     81978
#     94065
#     108660
#     123443
#     134120
#     152365
# 
# Disc length: 2226
# 
# Revision: 23
# Processed by: cddbd v1.5.2PL0 Copyright (c) Steve Scherf et al.
# Submitted via: fre:ac v1.0.17
# 
DISCID=8c08b00a
DTITLE=The Smiths - The Queen Is Dead
DYEAR=1986
DGENRE=Indie
TTITLE0=The Queen Is Dead
TTITLE1=Frankly, Mr. Shankly
TTITLE2=I Know It's Over
TTITLE3=Never Had No One Ever
TTITLE4=Cemetry Gates
TTITLE5=Bigmouth Strikes Again
TTITLE6=The Boy with the Thorn in His Side
TTITLE7=Vicar in a Tutu
TTITLE8=There Is a Light That Never Goes Out
TTITLE9=Some Girls Are Bigger Than Others
EXTD=
EXTT0=
EXTT1=
EXTT2=
EXTT3=
EXTT4=
EXTT5=
EXTT6=
EXTT7=
EXTT8=
EXTT9=
PLAYORDER=
